<mxfile host="app.diagrams.net" modified="2022-04-19T10:52:07.663Z" agent="5.0 (Windows NT 10.0; Win64; x64) AppleWebKit/537.36 (KHTML, like Gecko) Chrome/99.0.4844.82 Safari/537.36" etag="HahktUVGUnj7bv5OCkxA" version="17.4.5" type="github">
  <diagram id="1GsaGOhPuQo9N7ZaYMCB" name="Page-1">
    <mxGraphModel dx="1422" dy="762" grid="1" gridSize="10" guides="1" tooltips="1" connect="1" arrows="1" fold="1" page="1" pageScale="1" pageWidth="1600" pageHeight="900" background="#F1FAEE" math="0" shadow="0">
      <root>
        <mxCell id="0" />
        <mxCell id="1" parent="0" />
        <mxCell id="5C9GGsjlYOhXfarIp8Tb-1" value="&lt;font style=&quot;font-size: 16px&quot;&gt;多数据源技术方案&lt;/font&gt;" style="swimlane;labelBackgroundColor=none;labelBorderColor=none;fontSize=16;fillColor=#A8DADC;html=1;strokeColor=#457B9D;fontColor=#1D3557;" parent="1" vertex="1">
          <mxGeometry x="30" y="150" width="1280" height="500" as="geometry">
            <mxRectangle x="30" y="150" width="160" height="23" as="alternateBounds" />
          </mxGeometry>
        </mxCell>
        <mxCell id="QnGywbHcmohgSB-NV8yT-61" value="私有化" style="shape=ext;double=1;rounded=1;whiteSpace=wrap;html=1;dashed=1;labelBackgroundColor=none;sketch=0;fontSize=14;fontColor=#000000;strokeColor=#000000;fillColor=none;" vertex="1" parent="5C9GGsjlYOhXfarIp8Tb-1">
          <mxGeometry x="900" y="100" width="370" height="120" as="geometry" />
        </mxCell>
        <mxCell id="QnGywbHcmohgSB-NV8yT-62" value="公有云" style="shape=ext;double=1;rounded=1;whiteSpace=wrap;html=1;dashed=1;labelBackgroundColor=none;sketch=0;fontSize=14;fontColor=#000000;strokeColor=#000000;fillColor=none;" vertex="1" parent="5C9GGsjlYOhXfarIp8Tb-1">
          <mxGeometry x="900" y="225" width="370" height="120" as="geometry" />
        </mxCell>
        <mxCell id="QnGywbHcmohgSB-NV8yT-2" value="" style="line;strokeWidth=1;direction=south;html=1;strokeColor=#457B9D;dashed=1;labelBackgroundColor=#F1FAEE;fillColor=#A8DADC;fontColor=#1D3557;" vertex="1" parent="5C9GGsjlYOhXfarIp8Tb-1">
          <mxGeometry x="240" y="60" width="10" height="410" as="geometry" />
        </mxCell>
        <mxCell id="QnGywbHcmohgSB-NV8yT-3" value="" style="line;strokeWidth=1;direction=south;html=1;strokeColor=#457B9D;dashed=1;labelBackgroundColor=#F1FAEE;fillColor=#A8DADC;fontColor=#1D3557;" vertex="1" parent="5C9GGsjlYOhXfarIp8Tb-1">
          <mxGeometry x="1047" y="60" width="10" height="410" as="geometry" />
        </mxCell>
        <mxCell id="QnGywbHcmohgSB-NV8yT-4" value="" style="line;strokeWidth=1;direction=south;html=1;strokeColor=#457B9D;dashed=1;labelBackgroundColor=#F1FAEE;fillColor=#A8DADC;fontColor=#1D3557;" vertex="1" parent="5C9GGsjlYOhXfarIp8Tb-1">
          <mxGeometry x="640" y="60" width="10" height="410" as="geometry" />
        </mxCell>
        <mxCell id="5C9GGsjlYOhXfarIp8Tb-4" value="公证处A数据库" style="aspect=fixed;html=1;points=[];align=center;image;fontSize=12;image=img/lib/azure2/databases/Azure_Database_MySQL_Server.svg;labelBackgroundColor=none;fillColor=#A8DADC;strokeColor=#457B9D;fontColor=#1D3557;" parent="5C9GGsjlYOhXfarIp8Tb-1" vertex="1">
          <mxGeometry x="1170" y="110" width="55.5" height="74" as="geometry" />
        </mxCell>
        <mxCell id="5C9GGsjlYOhXfarIp8Tb-5" value="平台数据库" style="aspect=fixed;html=1;points=[];align=center;image;fontSize=12;image=img/lib/azure2/databases/Azure_Database_MySQL_Server.svg;labelBackgroundColor=none;fillColor=#A8DADC;strokeColor=#457B9D;fontColor=#1D3557;" parent="5C9GGsjlYOhXfarIp8Tb-1" vertex="1">
          <mxGeometry x="310" y="350" width="55.5" height="74" as="geometry" />
        </mxCell>
        <mxCell id="QnGywbHcmohgSB-NV8yT-7" value="公证处B数据库" style="aspect=fixed;html=1;points=[];align=center;image;fontSize=12;image=img/lib/azure2/databases/Azure_Database_MySQL_Server.svg;labelBackgroundColor=none;fillColor=#A8DADC;strokeColor=#457B9D;fontColor=#1D3557;" vertex="1" parent="5C9GGsjlYOhXfarIp8Tb-1">
          <mxGeometry x="1170" y="230" width="55.5" height="74" as="geometry" />
        </mxCell>
        <mxCell id="QnGywbHcmohgSB-NV8yT-6" value="。。。" style="aspect=fixed;html=1;points=[];align=center;image;fontSize=12;image=img/lib/azure2/databases/Azure_Database_MySQL_Server.svg;labelBackgroundColor=none;fillColor=#A8DADC;strokeColor=#457B9D;fontColor=#1D3557;" vertex="1" parent="5C9GGsjlYOhXfarIp8Tb-1">
          <mxGeometry x="1170" y="360" width="55.5" height="74" as="geometry" />
        </mxCell>
        <mxCell id="QnGywbHcmohgSB-NV8yT-9" value="" style="shape=singleArrow;whiteSpace=wrap;html=1;arrowWidth=0.4;arrowSize=0.4;rounded=0;sketch=0;fontColor=#1D3557;strokeColor=#457B9D;fillColor=#FFFFFF;" vertex="1" parent="5C9GGsjlYOhXfarIp8Tb-1">
          <mxGeometry x="200" y="70" width="110" height="10" as="geometry" />
        </mxCell>
        <mxCell id="QnGywbHcmohgSB-NV8yT-8" value="&lt;span style=&quot;font-size: 9px&quot;&gt;客户端&lt;/span&gt;" style="text;html=1;align=center;verticalAlign=middle;resizable=0;points=[];autosize=1;strokeColor=none;fillColor=none;fontColor=#000000;fontStyle=1;fontSize=9;" vertex="1" parent="5C9GGsjlYOhXfarIp8Tb-1">
          <mxGeometry x="125" y="65" width="50" height="20" as="geometry" />
        </mxCell>
        <mxCell id="QnGywbHcmohgSB-NV8yT-10" value="&lt;h3 style=&quot;padding: 0px ; margin: 24px 0px 16px ; box-sizing: border-box ; font-size: 1.25em ; line-height: 1.25 ; color: rgb(36 , 41 , 46) ; font-family: , &amp;#34;blinkmacsystemfont&amp;#34; , &amp;#34;segoe ui&amp;#34; , &amp;#34;helvetica&amp;#34; , &amp;#34;arial&amp;#34; , sans-serif , &amp;#34;apple color emoji&amp;#34; , &amp;#34;segoe ui emoji&amp;#34; , &amp;#34;segoe ui symbol&amp;#34;&quot;&gt;Consumer&lt;/h3&gt;" style="whiteSpace=wrap;html=1;rounded=0;sketch=0;fontColor=#1D3557;strokeColor=#457B9D;fillColor=#FFFFFF;" vertex="1" parent="5C9GGsjlYOhXfarIp8Tb-1">
          <mxGeometry x="185" y="30" width="140" height="30" as="geometry" />
        </mxCell>
        <mxCell id="QnGywbHcmohgSB-NV8yT-11" value="" style="shape=singleArrow;whiteSpace=wrap;html=1;arrowWidth=0.4;arrowSize=0.4;rounded=0;sketch=0;fontColor=#1D3557;strokeColor=#457B9D;fillColor=#FFFFFF;" vertex="1" parent="5C9GGsjlYOhXfarIp8Tb-1">
          <mxGeometry x="600" y="70" width="110" height="10" as="geometry" />
        </mxCell>
        <mxCell id="QnGywbHcmohgSB-NV8yT-12" value="&lt;h3 style=&quot;padding: 0px ; margin: 24px 0px 16px ; box-sizing: border-box ; font-size: 1.25em ; line-height: 1.25 ; color: rgb(36 , 41 , 46) ; font-family: , &amp;#34;blinkmacsystemfont&amp;#34; , &amp;#34;segoe ui&amp;#34; , &amp;#34;helvetica&amp;#34; , &amp;#34;arial&amp;#34; , sans-serif , &amp;#34;apple color emoji&amp;#34; , &amp;#34;segoe ui emoji&amp;#34; , &amp;#34;segoe ui symbol&amp;#34;&quot;&gt;Registry&lt;/h3&gt;" style="whiteSpace=wrap;html=1;rounded=0;sketch=0;fontColor=#1D3557;strokeColor=#457B9D;fillColor=#FFFFFF;" vertex="1" parent="5C9GGsjlYOhXfarIp8Tb-1">
          <mxGeometry x="585" y="30" width="140" height="30" as="geometry" />
        </mxCell>
        <mxCell id="QnGywbHcmohgSB-NV8yT-13" value="" style="shape=singleArrow;whiteSpace=wrap;html=1;arrowWidth=0.4;arrowSize=0.4;rounded=0;sketch=0;fontColor=#1D3557;strokeColor=#457B9D;fillColor=#FFFFFF;" vertex="1" parent="5C9GGsjlYOhXfarIp8Tb-1">
          <mxGeometry x="1004" y="70" width="110" height="10" as="geometry" />
        </mxCell>
        <mxCell id="QnGywbHcmohgSB-NV8yT-14" value="&lt;h3 style=&quot;padding: 0px ; margin: 24px 0px 16px ; box-sizing: border-box ; font-size: 1.25em ; line-height: 1.25 ; color: rgb(36 , 41 , 46) ; font-family: , &amp;#34;blinkmacsystemfont&amp;#34; , &amp;#34;segoe ui&amp;#34; , &amp;#34;helvetica&amp;#34; , &amp;#34;arial&amp;#34; , sans-serif , &amp;#34;apple color emoji&amp;#34; , &amp;#34;segoe ui emoji&amp;#34; , &amp;#34;segoe ui symbol&amp;#34;&quot;&gt;Provider&lt;/h3&gt;" style="whiteSpace=wrap;html=1;rounded=0;sketch=0;fontColor=#1D3557;strokeColor=#457B9D;fillColor=#FFFFFF;" vertex="1" parent="5C9GGsjlYOhXfarIp8Tb-1">
          <mxGeometry x="984" y="30" width="140" height="35" as="geometry" />
        </mxCell>
        <mxCell id="QnGywbHcmohgSB-NV8yT-15" value="平台业务服务" style="aspect=fixed;html=1;points=[];align=center;image;fontSize=12;image=img/lib/azure2/app_services/App_Service_Plans.svg;rounded=0;sketch=0;fontColor=#1D3557;strokeColor=#457B9D;fillColor=#A8DADC;" vertex="1" parent="5C9GGsjlYOhXfarIp8Tb-1">
          <mxGeometry x="310" y="210" width="64" height="64" as="geometry" />
        </mxCell>
        <mxCell id="QnGywbHcmohgSB-NV8yT-16" value="&lt;font style=&quot;font-size: 9px&quot;&gt;业务服务规则算法&lt;/font&gt;" style="text;html=1;align=center;verticalAlign=middle;resizable=0;points=[];autosize=1;strokeColor=none;fillColor=none;fontColor=#000000;fontStyle=1;fontSize=9;" vertex="1" parent="5C9GGsjlYOhXfarIp8Tb-1">
          <mxGeometry x="390" y="65" width="110" height="20" as="geometry" />
        </mxCell>
        <mxCell id="QnGywbHcmohgSB-NV8yT-17" value="&lt;font style=&quot;font-size: 9px;&quot;&gt;业务服务&lt;/font&gt;" style="text;html=1;align=center;verticalAlign=middle;resizable=0;points=[];autosize=1;strokeColor=none;fillColor=none;fontColor=#000000;fontStyle=1;fontSize=9;" vertex="1" parent="5C9GGsjlYOhXfarIp8Tb-1">
          <mxGeometry x="845" y="65" width="60" height="20" as="geometry" />
        </mxCell>
        <mxCell id="QnGywbHcmohgSB-NV8yT-18" value="公证处A服务" style="aspect=fixed;html=1;points=[];align=center;image;fontSize=12;image=img/lib/azure2/app_services/App_Service_Plans.svg;rounded=0;sketch=0;fontColor=#1D3557;strokeColor=#457B9D;fillColor=#A8DADC;" vertex="1" parent="5C9GGsjlYOhXfarIp8Tb-1">
          <mxGeometry x="920" y="120" width="64" height="64" as="geometry" />
        </mxCell>
        <mxCell id="QnGywbHcmohgSB-NV8yT-19" value="公证处B服务" style="aspect=fixed;html=1;points=[];align=center;image;fontSize=12;image=img/lib/azure2/app_services/App_Service_Plans.svg;rounded=0;sketch=0;fontColor=#1D3557;strokeColor=#457B9D;fillColor=#A8DADC;" vertex="1" parent="5C9GGsjlYOhXfarIp8Tb-1">
          <mxGeometry x="920" y="238" width="64" height="64" as="geometry" />
        </mxCell>
        <mxCell id="QnGywbHcmohgSB-NV8yT-20" value="。。。" style="aspect=fixed;html=1;points=[];align=center;image;fontSize=12;image=img/lib/azure2/app_services/App_Service_Plans.svg;rounded=0;sketch=0;fontColor=#1D3557;strokeColor=#457B9D;fillColor=#A8DADC;" vertex="1" parent="5C9GGsjlYOhXfarIp8Tb-1">
          <mxGeometry x="920" y="360" width="64" height="64" as="geometry" />
        </mxCell>
        <mxCell id="QnGywbHcmohgSB-NV8yT-21" value="&lt;span style=&quot;font-size: 9px;&quot;&gt;多数据源&lt;/span&gt;" style="text;html=1;align=center;verticalAlign=middle;resizable=0;points=[];autosize=1;strokeColor=none;fillColor=none;fontColor=#000000;fontStyle=1;fontSize=9;" vertex="1" parent="5C9GGsjlYOhXfarIp8Tb-1">
          <mxGeometry x="1195" y="65" width="60" height="20" as="geometry" />
        </mxCell>
        <mxCell id="QnGywbHcmohgSB-NV8yT-27" value="" style="edgeStyle=orthogonalEdgeStyle;curved=0;rounded=1;sketch=0;orthogonalLoop=1;jettySize=auto;html=1;fontSize=19;fontColor=#000000;strokeColor=#457B9D;fillColor=#A8DADC;" edge="1" parent="5C9GGsjlYOhXfarIp8Tb-1">
          <mxGeometry relative="1" as="geometry">
            <mxPoint x="984" y="274" as="sourcePoint" />
            <mxPoint x="1130" y="274" as="targetPoint" />
          </mxGeometry>
        </mxCell>
        <mxCell id="QnGywbHcmohgSB-NV8yT-28" value="" style="edgeStyle=orthogonalEdgeStyle;curved=0;rounded=1;sketch=0;orthogonalLoop=1;jettySize=auto;html=1;fontSize=19;fontColor=#000000;strokeColor=#457B9D;fillColor=#A8DADC;" edge="1" parent="5C9GGsjlYOhXfarIp8Tb-1">
          <mxGeometry relative="1" as="geometry">
            <mxPoint x="984" y="410" as="sourcePoint" />
            <mxPoint x="1130" y="410" as="targetPoint" />
          </mxGeometry>
        </mxCell>
        <mxCell id="QnGywbHcmohgSB-NV8yT-29" value="&lt;span style=&quot;color: rgb(29 , 53 , 87) ; background-color: rgb(248 , 249 , 250)&quot;&gt;多银行多数据源&lt;/span&gt;" style="aspect=fixed;html=1;points=[];align=center;image;fontSize=12;image=img/lib/azure2/networking/IP_Groups.svg;rounded=0;sketch=0;fontColor=#000000;strokeColor=#457B9D;fillColor=none;" vertex="1" parent="5C9GGsjlYOhXfarIp8Tb-1">
          <mxGeometry x="28.36" y="210" width="96.64" height="75" as="geometry" />
        </mxCell>
        <mxCell id="QnGywbHcmohgSB-NV8yT-34" value="" style="edgeStyle=orthogonalEdgeStyle;curved=0;rounded=1;sketch=0;orthogonalLoop=1;jettySize=auto;html=1;fontSize=19;fontColor=#000000;strokeColor=#457B9D;fillColor=#A8DADC;" edge="1" parent="5C9GGsjlYOhXfarIp8Tb-1">
          <mxGeometry relative="1" as="geometry">
            <mxPoint x="150" y="248" as="sourcePoint" />
            <mxPoint x="290" y="248" as="targetPoint" />
          </mxGeometry>
        </mxCell>
        <mxCell id="QnGywbHcmohgSB-NV8yT-40" value="&lt;b&gt;&lt;span style=&quot;font-size: 10px&quot;&gt;Service&amp;nbsp;&lt;/span&gt;&lt;span style=&quot;color: rgb(36 , 41 , 46)&quot;&gt;Registry&amp;nbsp;&lt;/span&gt;&lt;span style=&quot;font-size: 10px&quot;&gt;Center&lt;/span&gt;&lt;/b&gt;" style="aspect=fixed;html=1;points=[];align=center;image;fontSize=10;image=img/lib/azure2/app_services/App_Service_Environments.svg;rounded=0;sketch=0;fontColor=#000000;strokeColor=#457B9D;fillColor=none;labelBackgroundColor=none;" vertex="1" parent="5C9GGsjlYOhXfarIp8Tb-1">
          <mxGeometry x="601.5" y="213" width="87" height="87" as="geometry" />
        </mxCell>
        <mxCell id="QnGywbHcmohgSB-NV8yT-41" value="" style="edgeStyle=orthogonalEdgeStyle;curved=0;rounded=1;sketch=0;orthogonalLoop=1;jettySize=auto;html=1;fontSize=19;fontColor=#000000;strokeColor=#457B9D;fillColor=#A8DADC;labelBackgroundColor=none;" edge="1" parent="5C9GGsjlYOhXfarIp8Tb-1">
          <mxGeometry relative="1" as="geometry">
            <mxPoint x="290" y="480" as="sourcePoint" />
            <mxPoint x="1000" y="480" as="targetPoint" />
          </mxGeometry>
        </mxCell>
        <mxCell id="QnGywbHcmohgSB-NV8yT-42" value="&lt;font style=&quot;font-size: 15px&quot;&gt;RPC&lt;/font&gt;" style="edgeLabel;html=1;align=center;verticalAlign=middle;resizable=0;points=[];fontSize=19;fontColor=#000000;labelBackgroundColor=none;" vertex="1" connectable="0" parent="QnGywbHcmohgSB-NV8yT-41">
          <mxGeometry x="0.107" y="2" relative="1" as="geometry">
            <mxPoint x="-38" y="12" as="offset" />
          </mxGeometry>
        </mxCell>
        <mxCell id="QnGywbHcmohgSB-NV8yT-43" value="" style="shape=curlyBracket;whiteSpace=wrap;html=1;rounded=1;labelBackgroundColor=none;sketch=0;fontSize=19;fontColor=#000000;strokeColor=#457B9D;fillColor=none;align=center;" vertex="1" parent="5C9GGsjlYOhXfarIp8Tb-1">
          <mxGeometry x="839" y="165" width="52" height="230" as="geometry" />
        </mxCell>
        <mxCell id="QnGywbHcmohgSB-NV8yT-45" value="" style="shape=curlyBracket;whiteSpace=wrap;html=1;rounded=1;labelBackgroundColor=none;sketch=0;fontSize=19;fontColor=#000000;strokeColor=#000000;fillColor=none;dashed=1;" vertex="1" parent="5C9GGsjlYOhXfarIp8Tb-1">
          <mxGeometry x="480" y="170" width="52" height="230" as="geometry" />
        </mxCell>
        <mxCell id="QnGywbHcmohgSB-NV8yT-46" value="&lt;span style=&quot;font-size: 19px ; font-weight: 400&quot;&gt;subscribe&lt;/span&gt;" style="text;html=1;align=center;verticalAlign=middle;resizable=0;points=[];autosize=1;strokeColor=none;fillColor=none;fontColor=#000000;fontStyle=1" vertex="1" parent="5C9GGsjlYOhXfarIp8Tb-1">
          <mxGeometry x="440" y="414" width="100" height="20" as="geometry" />
        </mxCell>
        <mxCell id="QnGywbHcmohgSB-NV8yT-48" value="&lt;span style=&quot;font-size: 15.8333px ; font-weight: 400&quot;&gt;publish&lt;/span&gt;" style="text;html=1;align=center;verticalAlign=middle;resizable=0;points=[];autosize=1;strokeColor=none;fillColor=none;fontColor=#000000;fontStyle=1" vertex="1" parent="5C9GGsjlYOhXfarIp8Tb-1">
          <mxGeometry x="830" y="404" width="70" height="20" as="geometry" />
        </mxCell>
        <mxCell id="QnGywbHcmohgSB-NV8yT-49" value="" style="shape=curlyBracket;whiteSpace=wrap;html=1;rounded=1;flipH=1;dashed=1;labelBackgroundColor=none;sketch=0;fontSize=19;fontColor=#000000;strokeColor=#000000;fillColor=none;" vertex="1" parent="5C9GGsjlYOhXfarIp8Tb-1">
          <mxGeometry x="750" y="165" width="52" height="235" as="geometry" />
        </mxCell>
        <mxCell id="QnGywbHcmohgSB-NV8yT-50" value="&lt;span style=&quot;font-size: 15.8333px ; font-weight: 400&quot;&gt;health check&lt;/span&gt;" style="text;html=1;align=center;verticalAlign=middle;resizable=0;points=[];autosize=1;strokeColor=none;fillColor=none;fontColor=#000000;fontStyle=1" vertex="1" parent="5C9GGsjlYOhXfarIp8Tb-1">
          <mxGeometry x="705" y="130" width="100" height="20" as="geometry" />
        </mxCell>
        <mxCell id="QnGywbHcmohgSB-NV8yT-52" value="" style="edgeStyle=segmentEdgeStyle;endArrow=classic;html=1;rounded=1;labelBackgroundColor=none;sketch=0;fontSize=19;fontColor=#000000;strokeColor=#457B9D;fillColor=#A8DADC;curved=0;" edge="1" parent="5C9GGsjlYOhXfarIp8Tb-1">
          <mxGeometry width="50" height="50" relative="1" as="geometry">
            <mxPoint x="889" y="220" as="sourcePoint" />
            <mxPoint x="839" y="220" as="targetPoint" />
          </mxGeometry>
        </mxCell>
        <mxCell id="QnGywbHcmohgSB-NV8yT-53" value="" style="edgeStyle=segmentEdgeStyle;endArrow=classic;html=1;rounded=1;labelBackgroundColor=none;sketch=0;fontSize=19;fontColor=#000000;strokeColor=#457B9D;fillColor=#A8DADC;curved=0;" edge="1" parent="5C9GGsjlYOhXfarIp8Tb-1">
          <mxGeometry width="50" height="50" relative="1" as="geometry">
            <mxPoint x="891" y="359" as="sourcePoint" />
            <mxPoint x="841" y="359" as="targetPoint" />
          </mxGeometry>
        </mxCell>
        <mxCell id="QnGywbHcmohgSB-NV8yT-57" value="" style="edgeStyle=orthogonalEdgeStyle;curved=0;rounded=1;sketch=0;orthogonalLoop=1;jettySize=auto;html=1;fontSize=19;fontColor=#000000;strokeColor=#457B9D;fillColor=#A8DADC;dashed=1;" edge="1" parent="5C9GGsjlYOhXfarIp8Tb-1">
          <mxGeometry relative="1" as="geometry">
            <mxPoint x="730" y="190" as="sourcePoint" />
            <mxPoint x="820" y="190" as="targetPoint" />
          </mxGeometry>
        </mxCell>
        <mxCell id="QnGywbHcmohgSB-NV8yT-58" value="" style="edgeStyle=orthogonalEdgeStyle;curved=0;rounded=1;sketch=0;orthogonalLoop=1;jettySize=auto;html=1;fontSize=19;fontColor=#000000;strokeColor=#457B9D;fillColor=#A8DADC;dashed=1;" edge="1" parent="5C9GGsjlYOhXfarIp8Tb-1">
          <mxGeometry relative="1" as="geometry">
            <mxPoint x="731" y="380" as="sourcePoint" />
            <mxPoint x="821" y="380" as="targetPoint" />
          </mxGeometry>
        </mxCell>
        <mxCell id="QnGywbHcmohgSB-NV8yT-32" value="" style="edgeStyle=orthogonalEdgeStyle;curved=0;rounded=1;sketch=0;orthogonalLoop=1;jettySize=auto;html=1;fontSize=19;fontColor=#000000;strokeColor=#457B9D;fillColor=#A8DADC;entryX=0.486;entryY=-0.054;entryDx=0;entryDy=0;entryPerimeter=0;" edge="1" parent="5C9GGsjlYOhXfarIp8Tb-1" target="5C9GGsjlYOhXfarIp8Tb-5">
          <mxGeometry relative="1" as="geometry">
            <mxPoint x="337" y="305" as="sourcePoint" />
            <mxPoint x="337" y="335" as="targetPoint" />
          </mxGeometry>
        </mxCell>
        <mxCell id="5C9GGsjlYOhXfarIp8Tb-22" value="&lt;div style=&quot;font-size: 14px;&quot;&gt;&lt;span style=&quot;font-size: 14px;&quot;&gt;&lt;font style=&quot;font-size: 14px;&quot;&gt;&lt;span style=&quot;font-size: 14px;&quot;&gt;赋强多租户（银行和公证处）需要私有化部署多数据源模式&lt;/span&gt;&lt;/font&gt;&lt;/span&gt;&lt;/div&gt;&lt;span style=&quot;font-size: 14px;&quot;&gt;&lt;span style=&quot;font-size: 14px;&quot;&gt;（&lt;/span&gt;&lt;/span&gt;&lt;span style=&quot;font-size: 14px;&quot;&gt;目标实现现有服务拆分和业务中台建设&lt;/span&gt;&lt;span style=&quot;font-size: 14px;&quot;&gt;）&lt;/span&gt;" style="shape=callout;whiteSpace=wrap;html=1;perimeter=calloutPerimeter;labelBackgroundColor=none;labelBorderColor=none;fontSize=14;fillColor=#A8DADC;strokeColor=#457B9D;fontColor=#1D3557;fontStyle=1" parent="1" vertex="1">
          <mxGeometry x="900" y="40" width="390" height="100" as="geometry" />
        </mxCell>
        <mxCell id="QnGywbHcmohgSB-NV8yT-26" value="" style="edgeStyle=orthogonalEdgeStyle;curved=0;rounded=1;sketch=0;orthogonalLoop=1;jettySize=auto;html=1;fontSize=19;fontColor=#000000;strokeColor=#457B9D;fillColor=#A8DADC;" edge="1" parent="1">
          <mxGeometry relative="1" as="geometry">
            <mxPoint x="1014" y="298" as="sourcePoint" />
            <mxPoint x="1160" y="298" as="targetPoint" />
          </mxGeometry>
        </mxCell>
        <mxCell id="QnGywbHcmohgSB-NV8yT-54" value="" style="edgeStyle=segmentEdgeStyle;endArrow=classic;html=1;rounded=1;labelBackgroundColor=none;sketch=0;fontSize=19;fontColor=#000000;strokeColor=#457B9D;fillColor=#A8DADC;curved=0;dashed=1;" edge="1" parent="1">
          <mxGeometry width="50" height="50" relative="1" as="geometry">
            <mxPoint x="558" y="371" as="sourcePoint" />
            <mxPoint x="508" y="371" as="targetPoint" />
          </mxGeometry>
        </mxCell>
        <mxCell id="QnGywbHcmohgSB-NV8yT-55" value="" style="edgeStyle=segmentEdgeStyle;endArrow=classic;html=1;rounded=1;labelBackgroundColor=none;sketch=0;fontSize=19;fontColor=#000000;strokeColor=#457B9D;fillColor=#A8DADC;curved=0;dashed=1;" edge="1" parent="1">
          <mxGeometry width="50" height="50" relative="1" as="geometry">
            <mxPoint x="560" y="510" as="sourcePoint" />
            <mxPoint x="510" y="510" as="targetPoint" />
          </mxGeometry>
        </mxCell>
      </root>
    </mxGraphModel>
  </diagram>
</mxfile>
